<?xml version="1.0" encoding="UTF-8" standalone="no"?>
<!-- Generator: Adobe Illustrator 19.0.0, SVG Export Plug-In . SVG Version: 6.00 Build 0)  -->

<svg
   version="1.1"
   id="Capa_1"
   x="0px"
   y="0px"
   viewBox="0 0 60.469727 57.878823"
   xml:space="preserve"
   sodipodi:docname="photo_alarmeBot.svg"
   inkscape:version="1.1.2 (0a00cf5339, 2022-02-04)"
   width="60.469727"
   height="57.878822"
   inkscape:export-filename="/home/margoulin/Documents/telegram_alarmeBot/photo_alarmeBot.png"
   inkscape:export-xdpi="1334.1812"
   inkscape:export-ydpi="1334.1812"
   xmlns:inkscape="http://www.inkscape.org/namespaces/inkscape"
   xmlns:sodipodi="http://sodipodi.sourceforge.net/DTD/sodipodi-0.dtd"
   xmlns="http://www.w3.org/2000/svg"
   xmlns:svg="http://www.w3.org/2000/svg"><defs
   id="defs55" /><sodipodi:namedview
   id="namedview53"
   pagecolor="#ffffff"
   bordercolor="#666666"
   borderopacity="1.0"
   inkscape:pageshadow="2"
   inkscape:pageopacity="0.0"
   inkscape:pagecheckerboard="0"
   showgrid="false"
   inkscape:zoom="10.948276"
   inkscape:cx="29.456693"
   inkscape:cy="35.713385"
   inkscape:window-width="1920"
   inkscape:window-height="1020"
   inkscape:window-x="0"
   inkscape:window-y="28"
   inkscape:window-maximized="1"
   inkscape:current-layer="g68"
   fit-margin-top="0"
   fit-margin-left="0"
   fit-margin-right="0"
   fit-margin-bottom="0" />









<g
   id="g68"
   transform="scale(1.4208682)"><path
     style="fill:#8697cb;stroke-width:0.481327"
     d="m 28.959323,35.805209 -8.358688,-2.258958 -2.347629,2.282472 9.327165,2.659123 c 1.049859,-1.297972 0.873981,-0.911051 1.379152,-2.682637 z"
     id="path2"
     sodipodi:nodetypes="ccccc" /><path
     style="fill:#8697cb;stroke-width:0.720627"
     d="m 29.16387,37.082715 c 0.162976,0.123613 0.304953,0.254498 0.435934,0.389018 0.026,0.02701 0.05099,0.05402 0.07599,0.08154 0.121982,0.13452 0.231964,0.272676 0.318952,0.416545 9.66e-4,0.001 9.66e-4,0.0016 0.002,0.0026 0.08599,0.14283 0.147977,0.290854 0.197969,0.440956 0.01199,0.03584 0.022,0.07167 0.032,0.107512 0.039,0.15166 0.06699,0.305917 0.06699,0.46329 0,0.08206 -0.008,0.142311 -0.019,0.195288 -0.01999,0.181264 -0.06299,0.358893 -0.135979,0.531329 l 12.419567,-9.199566 -0.03359,-3.130698 z"
     id="path4"
     sodipodi:nodetypes="cccccccsccccc" /><ellipse
     style="fill:#556080;stroke-width:0.522039"
     cx="29.48744"
     cy="37.326431"
     id="circle6"
     rx="3.3781705"
     ry="3.4083974" /><path
     style="fill:#556080;stroke-width:0.992792"
     d="m 21.124048,32.065685 c 0,3.016104 -2.444255,4.853762 -5.460358,4.853762 -3.016104,0 -5.460359,-1.837658 -5.460359,-4.853762 z"
     id="path8" /><path
     style="fill:#808080"
     d="M 25,33 H 3.276 C 1.467,33 0,31.533 0,29.724 V 3.276 C 0,1.467 1.467,0 3.276,0 H 25 c 1.809,0 3,1.467 3,3.276 V 29.724 C 28,31.533 26.809,33 25,33 Z"
     id="path10" /><circle
     style="fill:#8697cb"
     cx="14"
     cy="14"
     r="11"
     id="circle12" /><path
     style="fill:#556080"
     d="m 14,21 c -3.86,0 -7,-3.14 -7,-7 0,-3.86 3.14,-7 7,-7 3.86,0 7,3.14 7,7 0,3.86 -3.14,7 -7,7 z"
     id="path14" /><circle
     style="fill:#e64c3c;stroke-width:1.49388"
     cx="24.365316"
     cy="3.2367489"
     r="1.4938833"
     id="circle16" /><path
     style="fill:#b3b3b3"
     d="M 24,33 H 4 V 30.926 C 4,29.31 5.31,28 6.926,28 h 14.149 c 1.616,0 2.926,1.31 2.926,2.926 V 33 Z"
     id="path18" /><path
     style="fill:#d0e8f9"
     d="m 10,15 c -0.552,0 -1,-0.448 -1,-1 0,-2.757 2.243,-5 5,-5 0.552,0 1,0.448 1,1 0,0.552 -0.448,1 -1,1 -1.654,0 -3,1.346 -3,3 0,0.552 -0.448,1 -1,1 z"
     id="path20" /></g>
<g
   id="g22"
   transform="translate(-5.5)">
</g>
<g
   id="g24"
   transform="translate(-5.5)">
</g>
<g
   id="g26"
   transform="translate(-5.5)">
</g>
<g
   id="g28"
   transform="translate(-5.5)">
</g>
<g
   id="g30"
   transform="translate(-5.5)">
</g>
<g
   id="g32"
   transform="translate(-5.5)">
</g>
<g
   id="g34"
   transform="translate(-5.5)">
</g>
<g
   id="g36"
   transform="translate(-5.5)">
</g>
<g
   id="g38"
   transform="translate(-5.5)">
</g>
<g
   id="g40"
   transform="translate(-5.5)">
</g>
<g
   id="g42"
   transform="translate(-5.5)">
</g>
<g
   id="g44"
   transform="translate(-5.5)">
</g>
<g
   id="g46"
   transform="translate(-5.5)">
</g>
<g
   id="g48"
   transform="translate(-5.5)">
</g>
<g
   id="g50"
   transform="translate(-5.5)">
</g>
</svg>
